<mxfile host="app.diagrams.net" modified="2023-11-30T17:15:11.636Z" agent="Mozilla/5.0 (Windows NT 10.0; Win64; x64) AppleWebKit/537.36 (KHTML, like Gecko) Chrome/119.0.0.0 Safari/537.36" etag="T2yE2nk4S9eHlMBiwprn" version="22.1.4" type="github">
  <diagram name="Page-1" id="e7e014a7-5840-1c2e-5031-d8a46d1fe8dd">
    <mxGraphModel dx="1194" dy="750" grid="1" gridSize="10" guides="1" tooltips="1" connect="1" arrows="1" fold="1" page="1" pageScale="1" pageWidth="1169" pageHeight="826" background="none" math="0" shadow="0">
      <root>
        <mxCell id="0" />
        <mxCell id="1" parent="0" />
        <mxCell id="2" value="General Process Flow" style="swimlane;whiteSpace=wrap;swimlaneFillColor=none;" parent="1" vertex="1">
          <mxGeometry x="164.5" y="120" width="485.5" height="570" as="geometry" />
        </mxCell>
        <mxCell id="5" value="" style="ellipse;shape=startState;fillColor=#000000;strokeColor=#ff0000;" parent="2" vertex="1">
          <mxGeometry x="100" y="40" width="30" height="30" as="geometry" />
        </mxCell>
        <mxCell id="6" value="" style="edgeStyle=elbowEdgeStyle;elbow=horizontal;verticalAlign=bottom;endArrow=open;endSize=8;strokeColor=#FF0000;endFill=1;rounded=0" parent="2" source="5" target="7" edge="1">
          <mxGeometry x="100" y="40" as="geometry">
            <mxPoint x="115" y="110" as="targetPoint" />
          </mxGeometry>
        </mxCell>
        <mxCell id="7" value="Nightly Timer or &#xa;Developer Merge&#xa;Request" style="gradientColor=#E3E3E3;gradientDirection=south;fillColor=default;" parent="2" vertex="1">
          <mxGeometry x="60" y="110" width="110" height="50" as="geometry" />
        </mxCell>
        <mxCell id="8" value="Run &#xa;CI/CD Pipeline" style="gradientColor=#e3e3e3;" parent="2" vertex="1">
          <mxGeometry x="60" y="192" width="110" height="50" as="geometry" />
        </mxCell>
        <mxCell id="9" value="" style="endArrow=open;strokeColor=#FF0000;endFill=1;rounded=0" parent="2" source="7" target="8" edge="1">
          <mxGeometry relative="1" as="geometry" />
        </mxCell>
        <mxCell id="10" value="Execute&#xa;SAST tools" style="gradientColor=#e3e3e3;" parent="2" vertex="1">
          <mxGeometry x="60" y="285" width="110" height="50" as="geometry" />
        </mxCell>
        <mxCell id="11" value="" style="endArrow=open;strokeColor=#FF0000;endFill=1;rounded=0" parent="2" source="8" target="10" edge="1">
          <mxGeometry relative="1" as="geometry" />
        </mxCell>
        <mxCell id="g5rFKzS1i_Fy5WojS4au-45" value="tools complete" style="rhombus;fillColor=#ffffc0;strokeColor=#ff0000;" vertex="1" parent="2">
          <mxGeometry x="67.75" y="372" width="94.5" height="58" as="geometry" />
        </mxCell>
        <mxCell id="g5rFKzS1i_Fy5WojS4au-46" value="" style="endArrow=open;strokeColor=#FF0000;endFill=1;rounded=0;exitX=0.5;exitY=1;exitDx=0;exitDy=0;entryX=0.5;entryY=0;entryDx=0;entryDy=0;" edge="1" parent="2" source="10" target="g5rFKzS1i_Fy5WojS4au-45">
          <mxGeometry relative="1" as="geometry">
            <mxPoint x="125" y="280" as="sourcePoint" />
            <mxPoint x="125" y="335" as="targetPoint" />
            <Array as="points">
              <mxPoint x="115.5" y="372" />
            </Array>
          </mxGeometry>
        </mxCell>
        <mxCell id="g5rFKzS1i_Fy5WojS4au-51" value="" style="endArrow=open;strokeColor=#FF0000;endFill=1;rounded=0;exitX=0;exitY=0.5;exitDx=0;exitDy=0;entryX=0;entryY=0.5;entryDx=0;entryDy=0;" edge="1" parent="2" source="g5rFKzS1i_Fy5WojS4au-45" target="10">
          <mxGeometry relative="1" as="geometry">
            <mxPoint x="125" y="345" as="sourcePoint" />
            <mxPoint x="45.5" y="302" as="targetPoint" />
            <Array as="points">
              <mxPoint x="35.5" y="400" />
              <mxPoint x="35.5" y="310" />
            </Array>
          </mxGeometry>
        </mxCell>
        <mxCell id="g5rFKzS1i_Fy5WojS4au-54" value="Yes" style="text;html=1;align=center;verticalAlign=middle;resizable=0;points=[];autosize=1;strokeColor=none;fillColor=none;" vertex="1" parent="2">
          <mxGeometry x="170" y="372" width="40" height="30" as="geometry" />
        </mxCell>
        <mxCell id="g5rFKzS1i_Fy5WojS4au-58" value="Begin Controller&#xa;Script" style="fillColor=#FFFFFF;gradientColor=#E3E3E3;" vertex="1" parent="2">
          <mxGeometry x="235.5" y="376" width="110" height="50" as="geometry" />
        </mxCell>
        <mxCell id="g5rFKzS1i_Fy5WojS4au-59" value="Gather Data From&#xa;SAST Tools " style="gradientColor=#E3E3E3;gradientDirection=south;fillColor=default;" vertex="1" parent="2">
          <mxGeometry x="235.5" y="285" width="110" height="50" as="geometry" />
        </mxCell>
        <mxCell id="g5rFKzS1i_Fy5WojS4au-61" value="Process Data and &#xa;Assemble Payloads" style="gradientColor=#E3E3E3;gradientDirection=south;fillColor=default;" vertex="1" parent="2">
          <mxGeometry x="235.5" y="192" width="110" height="50" as="geometry" />
        </mxCell>
        <mxCell id="g5rFKzS1i_Fy5WojS4au-77" value="" style="endArrow=open;strokeColor=#FF0000;endFill=1;rounded=0;exitX=0.5;exitY=0;exitDx=0;exitDy=0;entryX=0.5;entryY=1;entryDx=0;entryDy=0;" edge="1" parent="2" source="g5rFKzS1i_Fy5WojS4au-59" target="g5rFKzS1i_Fy5WojS4au-61">
          <mxGeometry relative="1" as="geometry">
            <mxPoint x="300.5" y="396" as="sourcePoint" />
            <mxPoint x="300.5" y="352" as="targetPoint" />
            <Array as="points" />
          </mxGeometry>
        </mxCell>
        <mxCell id="g5rFKzS1i_Fy5WojS4au-78" value="Create Issues in&#xa;Tracking Software" style="gradientColor=#E3E3E3;gradientDirection=south;fillColor=default;" vertex="1" parent="2">
          <mxGeometry x="235.5" y="110" width="110" height="50" as="geometry" />
        </mxCell>
        <mxCell id="g5rFKzS1i_Fy5WojS4au-60" value="" style="endArrow=open;strokeColor=#FF0000;endFill=1;rounded=0;exitX=0.5;exitY=0;exitDx=0;exitDy=0;entryX=0.5;entryY=1;entryDx=0;entryDy=0;" edge="1" parent="2" source="g5rFKzS1i_Fy5WojS4au-58" target="g5rFKzS1i_Fy5WojS4au-59">
          <mxGeometry relative="1" as="geometry">
            <mxPoint x="172.5" y="429" as="sourcePoint" />
            <mxPoint x="290.5" y="350" as="targetPoint" />
            <Array as="points">
              <mxPoint x="290.5" y="380" />
            </Array>
          </mxGeometry>
        </mxCell>
        <mxCell id="g5rFKzS1i_Fy5WojS4au-79" value="" style="endArrow=open;strokeColor=#FF0000;endFill=1;rounded=0;exitX=0.5;exitY=0;exitDx=0;exitDy=0;entryX=0.5;entryY=1;entryDx=0;entryDy=0;" edge="1" parent="2" source="g5rFKzS1i_Fy5WojS4au-61" target="g5rFKzS1i_Fy5WojS4au-78">
          <mxGeometry relative="1" as="geometry">
            <mxPoint x="301" y="295" as="sourcePoint" />
            <mxPoint x="301" y="252" as="targetPoint" />
            <Array as="points" />
          </mxGeometry>
        </mxCell>
        <mxCell id="g5rFKzS1i_Fy5WojS4au-80" value="" style="ellipse;shape=endState;fillColor=#000000;strokeColor=#ff0000" vertex="1" parent="2">
          <mxGeometry x="415.5" y="120" width="30" height="30" as="geometry" />
        </mxCell>
        <mxCell id="g5rFKzS1i_Fy5WojS4au-81" value="" style="endArrow=open;strokeColor=#FF0000;endFill=1;rounded=0;exitX=1;exitY=0.5;exitDx=0;exitDy=0;entryX=0;entryY=0.5;entryDx=0;entryDy=0;" edge="1" parent="2" source="g5rFKzS1i_Fy5WojS4au-78" target="g5rFKzS1i_Fy5WojS4au-80">
          <mxGeometry relative="1" as="geometry">
            <mxPoint x="301" y="295" as="sourcePoint" />
            <mxPoint x="301" y="252" as="targetPoint" />
            <Array as="points" />
          </mxGeometry>
        </mxCell>
        <mxCell id="g5rFKzS1i_Fy5WojS4au-57" value="" style="endArrow=open;strokeColor=#FF0000;endFill=1;rounded=0;exitX=1;exitY=0.5;exitDx=0;exitDy=0;entryX=0;entryY=0.5;entryDx=0;entryDy=0;" edge="1" parent="2" source="g5rFKzS1i_Fy5WojS4au-45" target="g5rFKzS1i_Fy5WojS4au-58">
          <mxGeometry relative="1" as="geometry">
            <mxPoint x="125" y="353" as="sourcePoint" />
            <mxPoint x="235.5" y="419" as="targetPoint" />
            <Array as="points" />
          </mxGeometry>
        </mxCell>
      </root>
    </mxGraphModel>
  </diagram>
</mxfile>
